<?xml version="1.0" encoding="UTF-8"?>
<svg version="1.1" xmlns="http://www.w3.org/2000/svg" width="3333" height="1003">
<path d="M0 0 C1.99883836 1.8285903 4.02660928 3.59601871 6.08203125 5.359375 C10.9094614 9.5740842 15.45522273 14.05820616 19.98510742 18.58886719 C21.40324534 20.00482447 22.82952915 21.41260789 24.25585938 22.8203125 C30.43832196 28.989886 36.05489919 35.42290466 41.4765625 42.265625 C42.51318842 43.53194645 43.5519481 44.79652714 44.59375 46.05859375 C68.2866033 75.10117611 86.62947152 108.00552561 98.77148438 143.43408203 C99.32995027 145.25429976 99.32995027 145.25429976 100.4765625 146.265625 C100.74694336 145.65904053 101.01732422 145.05245605 101.29589844 144.42749023 C124.56657379 92.42933195 155.69167031 44.67182167 200.51171875 8.65234375 C202.58134359 6.98628212 204.62663795 5.30620257 206.66015625 3.59765625 C223.53538546 -10.43373082 242.26420856 -22.18594626 261.4765625 -32.734375 C262.26998047 -33.17555664 263.06339844 -33.61673828 263.88085938 -34.07128906 C349.33366858 -81.35245756 449.81973685 -89.74133589 554.96875 -63.6640625 C590.95483817 -53.23678633 621.60837909 -39.74894498 652.4765625 -18.734375 C651.8675095 -14.91084281 650.73539398 -11.88077232 649.00254822 -8.42558289 C648.479496 -7.37535446 647.95644379 -6.32512604 647.4175415 -5.24307251 C646.84139099 -4.10155731 646.26524048 -2.96004211 645.67163086 -1.78393555 C645.06013804 -0.56179656 644.44917427 0.66060725 643.83869934 1.883255 C642.1830173 5.19547895 640.51996757 8.50395372 638.85556483 11.81180215 C637.11625684 15.2716501 635.38375572 18.73490302 633.65052795 22.19779968 C630.36876549 28.75200455 627.08089773 35.3031267 623.79082257 41.85316199 C620.04489898 49.31146403 616.3057988 56.7731792 612.56726635 64.23518813 C604.8779483 79.58247608 597.18007726 94.92545829 589.4765625 110.265625 C585.18849462 109.37979969 582.185076 107.12858386 578.6640625 104.640625 C563.85727925 94.55388456 547.32286345 89.03498057 530.4765625 83.265625 C529.59323242 82.96205078 528.70990234 82.65847656 527.79980469 82.34570312 C519.25156938 79.439236 510.67904591 76.92664558 501.8515625 75.015625 C501.16078613 74.86440186 500.47000977 74.71317871 499.75830078 74.55737305 C485.60730781 71.68927868 471.43809823 70.88632129 457.0390625 70.953125 C456.21606659 70.95494781 455.39307068 70.95677063 454.5451355 70.95864868 C426.48187771 71.0625804 399.04230682 75.03257755 372.4765625 84.265625 C371.82671387 84.48831055 371.17686523 84.71099609 370.50732422 84.94042969 C360.68558855 88.33482919 351.42946915 92.5106623 342.23535156 97.34570312 C340.70798895 98.14457907 339.1675419 98.91834212 337.625 99.6875 C308.61619063 114.58628427 285.2953316 140.06167342 269.4765625 168.265625 C269.04988281 169.02472168 268.62320313 169.78381836 268.18359375 170.56591797 C244.01164953 214.04325602 236.24772101 263.89025526 249.36474609 312.30883789 C258.19683586 343.02817122 274.63251463 371.23406481 296.74609375 394.26171875 C298.4765625 396.265625 298.4765625 396.265625 298.4765625 398.265625 C299.05921875 398.51570313 299.641875 398.76578125 300.2421875 399.0234375 C302.77877413 400.43363776 304.26801848 402.00189493 306.2265625 404.140625 C343.79870071 442.26170679 401.48124321 455.02078198 453.16235352 455.62109375 C468.13046983 455.71771125 482.74375641 455.14159152 497.4765625 452.265625 C498.24484375 452.12108887 499.013125 451.97655273 499.8046875 451.82763672 C529.5271909 446.12197758 560.26014501 435.9238696 584.55859375 417.48046875 C586.4765625 416.265625 586.4765625 416.265625 589.4765625 416.265625 C597.74469393 432.6151599 605.99457312 448.97376585 614.22272682 465.34345627 C618.04347022 472.94365966 621.8701684 480.54075359 625.7109375 488.13085938 C629.05780907 494.7449652 632.39346318 501.36458413 635.71566331 507.99111867 C637.47581109 511.50096779 639.24151847 515.00776351 641.02067947 518.50801849 C642.69412598 521.80073 644.35250265 525.10058936 645.99948692 528.4066124 C646.8980291 530.20043628 647.81249466 531.98625604 648.7273407 533.77182007 C649.51835426 535.37034317 649.51835426 535.37034317 650.3253479 537.00115967 C650.79177515 537.92663982 651.2582024 538.85211998 651.73876381 539.80564499 C652.4765625 542.265625 652.4765625 542.265625 651.76579857 544.46696854 C625.7441373 580.77066059 551.18598748 592.50764201 510.296875 599.5234375 C488.44971366 603.11273946 466.59695445 604.71966275 444.4765625 605.265625 C443.54344238 605.28898926 442.61032227 605.31235352 441.64892578 605.33642578 C355.33704346 607.17284881 268.29161353 576.11849606 202.4765625 520.265625 C201.70183594 519.61078125 200.92710937 518.9559375 200.12890625 518.28125 C198.22001056 516.63497446 196.34495966 514.95768749 194.4765625 513.265625 C193.64898438 512.52957031 192.82140625 511.79351563 191.96875 511.03515625 C179.80073637 500.07731291 167.54537154 488.74246916 157.4609375 475.8046875 C155.30273544 473.04320849 153.01933247 470.41618392 150.7265625 467.765625 C144.00441216 459.72211594 138.2626698 450.99430032 132.4765625 442.265625 C131.81785156 441.27691406 131.15914062 440.28820312 130.48046875 439.26953125 C128.76265236 436.62895497 127.10941189 433.95964785 125.4765625 431.265625 C125.0935498 430.63881836 124.71053711 430.01201172 124.31591797 429.36621094 C115.20349701 414.3652831 106.8728403 398.6311086 100.4765625 382.265625 C98.66482401 384.98323274 97.60685924 387.26415597 96.4453125 390.2890625 C96.05239014 391.29928467 95.65946777 392.30950684 95.25463867 393.3503418 C94.83287354 394.43613525 94.4111084 395.52192871 93.9765625 396.640625 C74.21392622 446.56860529 42.52630232 492.32363194 1.4765625 527.265625 C0.56648437 528.06484375 -0.34359375 528.8640625 -1.28125 529.6875 C-51.64112588 573.59160384 -116.19239194 598.95022931 -182.5234375 604.265625 C-184.3178125 604.43191406 -184.3178125 604.43191406 -186.1484375 604.6015625 C-260.18494343 610.5053356 -340.37916439 594.86639359 -401.5234375 551.265625 C-402.64640906 550.48983295 -403.77014832 549.71515133 -404.89453125 548.94140625 C-413.19479335 543.17968479 -420.91587244 536.90812782 -428.5234375 530.265625 C-429.63138672 529.30849609 -429.63138672 529.30849609 -430.76171875 528.33203125 C-432.6936348 526.65563917 -434.61019955 524.96328684 -436.5234375 523.265625 C-437.27753906 522.60433594 -438.03164063 521.94304688 -438.80859375 521.26171875 C-448.28659907 512.86519739 -457.43393965 504.0215594 -465.5234375 494.265625 C-465.97267578 493.73018066 -466.42191406 493.19473633 -466.88476562 492.64306641 C-512.14724708 438.5795469 -539.45241608 372.62572046 -545.5234375 302.265625 C-545.61028809 301.26660156 -545.69713867 300.26757812 -545.78662109 299.23828125 C-546.68299464 287.58703446 -546.76670919 275.94630851 -546.7734375 264.265625 C-546.77411224 263.20759674 -546.77478699 262.14956848 -546.77548218 261.05947876 C-546.69250811 178.78254547 -520.2625084 96.88469783 -463.7890625 35.7421875 C-461.94111231 33.72218678 -460.15169283 31.67291019 -458.3671875 29.59765625 C-454.03834894 24.63950498 -449.42840131 19.97868779 -444.7734375 15.328125 C-443.88454834 14.4400415 -442.99565918 13.55195801 -442.07983398 12.63696289 C-436.9326036 7.53774508 -431.78469354 2.68117366 -426.0546875 -1.7578125 C-423.68202705 -3.6105381 -421.42160793 -5.55817643 -419.16210938 -7.54614258 C-375.85824239 -45.34312065 -319.8926345 -67.40698242 -263.5234375 -75.734375 C-262.77529785 -75.84620117 -262.0271582 -75.95802734 -261.25634766 -76.07324219 C-172.33184271 -89.06060366 -80.74812473 -65.5573771 0 0 Z M-318.5234375 102.265625 C-319.01440918 102.69101562 -319.50538086 103.11640625 -320.01123047 103.5546875 C-327.29416009 109.8744133 -333.70851767 116.54497514 -339.5234375 124.265625 C-339.96091309 124.82862305 -340.39838867 125.39162109 -340.84912109 125.97167969 C-371.16209999 165.18784495 -383.73385665 213.92162893 -383.7734375 262.828125 C-383.77411224 263.58719147 -383.77478699 264.34625793 -383.77548218 265.12832642 C-383.71166147 310.81858196 -374.85194215 362.28769302 -344.5234375 398.265625 C-343.63014386 399.3554159 -342.73692053 400.44526444 -341.84375 401.53515625 C-315.17791382 433.71958435 -278.33064641 453.59241869 -236.671875 457.88671875 C-235.28932458 458.01585807 -233.90649906 458.14208006 -232.5234375 458.265625 C-231.4391748 458.36834717 -231.4391748 458.36834717 -230.33300781 458.47314453 C-188.50760232 462.20594954 -145.42949938 453.36916372 -112.0859375 427.078125 C-96.48797117 413.94890154 -84.69964852 398.91138473 -74.5234375 381.265625 C-73.86730469 380.12996094 -73.21117187 378.99429687 -72.53515625 377.82421875 C-59.1967181 354.11036039 -52.06676148 327.930988 -47.5234375 301.265625 C-47.32210205 300.09507568 -47.32210205 300.09507568 -47.11669922 298.90087891 C-43.31928053 275.41670174 -43.80072897 248.71961248 -47.5234375 225.265625 C-47.6687793 224.30817383 -47.81412109 223.35072266 -47.96386719 222.36425781 C-55.21480047 176.09433025 -76.82678343 125.73457438 -115.44775391 96.82519531 C-172.73395584 55.25231421 -264.35255532 54.32400001 -318.5234375 102.265625 Z " fill="#FEF9F3" transform="translate(663.5234375,158.734375)"/>
<path d="M0 0 C0.76179565 -0.00067474 1.52359131 -0.00134949 2.30847168 -0.00204468 C49.54669462 0.06303347 95.5016165 7.42894381 140.3125 22.3125 C141.41446716 22.67760178 141.41446716 22.67760178 142.53869629 23.05007935 C158.36807451 28.33017595 173.54480939 34.60074379 188.375 42.25 C188.705 32.35 189.035 22.45 189.375 12.25 C239.205 12.25 289.035 12.25 340.375 12.25 C340.39481934 24.46926514 340.41463867 36.68853027 340.43505859 49.27807617 C340.49994072 88.42733913 340.57447824 127.57657841 340.65505161 166.72581209 C340.66756967 172.81240648 340.68000257 178.89900103 340.69238281 184.9855957 C340.69484881 186.1972674 340.6973148 187.40893909 340.69985552 188.65732811 C340.7395204 208.24640874 340.77229542 227.8354951 340.80249982 247.42459234 C340.83367359 267.54232164 340.87230811 287.66002677 340.91779006 307.77772886 C340.94559552 320.17968374 340.96766278 332.58162105 340.98226251 344.98359863 C340.9928489 353.50161109 341.01071766 362.01958942 341.03416704 370.5375761 C341.04746178 375.44335772 341.057686 380.34909176 341.05921364 385.25489235 C340.9957931 412.81491613 340.9957931 412.81491613 343.375 440.25 C343.61457208 442.04092465 343.61457208 442.04092465 343.85898399 443.86802959 C344.24731432 446.61251529 344.69531763 449.33489336 345.1875 452.0625 C345.35854248 453.01842041 345.52958496 453.97434082 345.70581055 454.95922852 C349.12710314 473.24142504 355.23265679 491.86780708 367.375 506.25 C367.96667969 506.95382812 368.55835938 507.65765625 369.16796875 508.3828125 C384.32408102 524.86387275 408.51254149 532.76498067 430.375 534.25 C448.89373344 534.98023397 467.39733526 535.32848317 485.375 530.25 C486.36983398 529.96914551 486.36983398 529.96914551 487.38476562 529.68261719 C507.74274 523.66256246 524.77923498 511.66959603 535.15625 493.0546875 C543.48701641 475.75559603 547.62141779 457.24529105 550.0625 438.3125 C550.24159912 436.93976929 550.24159912 436.93976929 550.42431641 435.53930664 C552.23525434 420.4215129 552.52403279 405.1789429 552.53321838 389.96943665 C552.53780126 388.32374127 552.54280369 386.67804702 552.54818195 385.03235406 C552.56157644 380.57166252 552.56912611 376.11097846 552.57560861 371.65027225 C552.58369622 366.81687808 552.59736447 361.98349909 552.61032104 357.15011597 C552.63196661 348.79632868 552.65015396 340.44253976 552.66592598 332.0887394 C552.68873418 320.01086242 552.71686117 307.93300231 552.74624526 295.85513975 C552.79378782 276.25491511 552.83708769 256.65468352 552.87768555 237.05444336 C552.91710864 218.02579204 552.95855095 198.99714686 553.00268555 179.96850586 C553.00677196 178.2061986 553.00677196 178.2061986 553.01094092 176.40828917 C553.02462152 170.513723 553.03834157 164.61915693 553.05208123 158.7245909 C553.16583625 109.89973938 553.27190372 61.07487542 553.375 12.25 C603.205 12.25 653.035 12.25 704.375 12.25 C704.41916111 67.8097695 704.45606237 123.36952232 704.47713066 178.92930437 C704.47963182 185.50129084 704.48222049 192.07327726 704.48486328 198.64526367 C704.4853879 199.95352717 704.48591252 201.26179067 704.48645304 202.60969851 C704.49513553 223.74212098 704.51089353 244.87453246 704.52930559 266.00694843 C704.54806481 287.72027606 704.55912941 309.43359798 704.56317699 331.14693338 C704.5659096 344.52544126 704.57451351 357.90391812 704.59083293 371.28241644 C704.6014743 380.47933707 704.6045846 389.67624186 704.60200275 398.87316819 C704.60073249 404.16475335 704.60256112 409.4562846 704.61341095 414.74785995 C704.71706755 468.06219166 702.64935678 523.46798982 676.38867188 571.39501953 C675.33489866 573.32338391 674.31568685 575.26781273 673.296875 577.21484375 C665.34523303 592.14722461 655.10532781 605.11342707 643.375 617.25 C642.49199219 618.18457031 641.60898438 619.11914062 640.69921875 620.08203125 C634.11255428 626.89746554 627.0629468 632.75270471 619.375 638.25 C618.80297852 638.6610498 618.23095703 639.07209961 617.64160156 639.49560547 C551.50405703 686.51899569 457.85034836 691.77046314 380.21875 679.4375 C343.08333569 673.16348023 306.22442473 661.47665473 275.375 639.25 C274.35277344 638.51394531 273.33054687 637.77789063 272.27734375 637.01953125 C254.10098015 623.62276487 238.49943609 607.31622878 226.375 588.25 C225.97571289 587.62287109 225.57642578 586.99574219 225.16503906 586.34960938 C207.99351601 559.03066793 198.63163591 528.87624973 193.1875 497.25 C193.0325708 496.36272217 192.8776416 495.47544434 192.71801758 494.5612793 C189.35140064 473.92723463 189.06597032 453.32280107 189.05832577 432.47620451 C189.05458272 428.23316009 189.03940395 423.99015321 189.02571106 419.74713135 C189.00358617 412.42031956 188.98848477 405.09352139 188.97834396 397.76668358 C188.96367216 387.17370013 188.93811237 376.58076419 188.91001268 365.98780886 C188.8646979 348.79567755 188.8280203 331.60353934 188.796875 314.41137695 C188.76662638 297.7245157 188.73224743 281.03767125 188.69238281 264.35083008 C188.68992126 263.31985981 188.68745972 262.28888953 188.68492357 261.22667774 C188.67254775 256.05388817 188.66009145 250.88109881 188.64759517 245.70830953 C188.54425702 202.88889298 188.45658805 160.0694646 188.375 117.25 C170.555 152.89 170.555 152.89 152.375 189.25 C148.03021479 188.1638037 145.26101824 186.22128816 141.6875 183.6875 C114.48383195 165.14841015 79.6911884 155.73746272 47.375 151.25 C46.15353271 151.07799072 44.93206543 150.90598145 43.67358398 150.72875977 C39.33816875 150.19273945 35.05235629 150.07220551 30.6875 150.046875 C29.87587402 150.03986069 29.06424805 150.03284637 28.22802734 150.02561951 C25.61029474 150.00816026 22.99278877 150.00176312 20.375 150 C19.03042725 149.99898788 19.03042725 149.99898788 17.65869141 149.99795532 C3.362078 150.01503744 -10.530733 150.68581404 -24.625 153.25 C-25.60243164 153.42160645 -26.57986328 153.59321289 -27.58691406 153.77001953 C-48.14940781 157.45861051 -67.76361744 163.28775442 -86.62890625 172.29882812 C-88.48298871 173.18232926 -90.35041028 174.0376873 -92.21875 174.890625 C-107.45465264 182.08923955 -121.20393348 191.91426939 -133.625 203.25 C-134.81802734 204.33667969 -134.81802734 204.33667969 -136.03515625 205.4453125 C-170.1610191 238.06650767 -192.44224186 287.4094785 -193.91015625 334.51171875 C-194.78825517 383.64150942 -178.8873527 428.98843589 -146.625 466.25 C-145.91988281 467.06597656 -145.21476562 467.88195312 -144.48828125 468.72265625 C-142.23918168 471.270559 -139.94629819 473.76770855 -137.625 476.25 C-136.30242187 477.67119141 -136.30242187 477.67119141 -134.953125 479.12109375 C-102.59164721 513.12571026 -55.40893299 528.9335828 -9.625 533.25 C-8.26012451 533.37918823 -8.26012451 533.37918823 -6.86767578 533.51098633 C46.87615207 538.13514437 101.2115405 527.69585662 146.375 497.25 C149.375 495.25 149.375 495.25 152.375 495.25 C160.64313143 511.5995349 168.89301062 527.95814085 177.12116432 544.32783127 C180.94190772 551.92803466 184.7686059 559.52512859 188.609375 567.11523438 C191.95624657 573.7293402 195.29190068 580.34895913 198.61410081 586.97549367 C200.37424859 590.48534279 202.13995597 593.99213851 203.91911697 597.49239349 C205.59256348 600.785105 207.25094015 604.08496436 208.89792442 607.3909874 C209.7964666 609.18481128 210.71093216 610.97063104 211.6257782 612.75619507 C212.15312057 613.82187714 212.68046295 614.8875592 213.2237854 615.98553467 C213.69021265 616.91101482 214.1566399 617.83649498 214.63720131 618.79001999 C215.375 621.25 215.375 621.25 214.64665794 623.4601326 C190.78691983 657.04287996 117.6201024 670.90997084 80.28132629 677.31950378 C-12.97846079 693.01596071 -107.47911184 681.19044968 -209.09375 618.796875 C-214.33643541 615.03187954 -219.50771308 611.18378823 -224.625 607.25 C-225.70943375 606.4359292 -226.79407617 605.62213633 -227.87890625 604.80859375 C-237.77655798 597.303171 -246.73159433 588.90745416 -255.625 580.25 C-256.74720947 579.16066162 -256.74720947 579.16066162 -257.89208984 578.04931641 C-266.33352904 569.82520669 -274.38743835 561.57050289 -281.625 552.25 C-282.51371919 551.17052804 -283.4058651 550.09387132 -284.30078125 549.01953125 C-339.0817967 482.83387792 -365.04183282 398.18300039 -357.85302734 312.79736328 C-352.8677254 262.70300834 -335.85691123 212.69603748 -308.625 170.25 C-308.23038574 169.62851074 -307.83577148 169.00702148 -307.42919922 168.36669922 C-296.03191599 150.51691305 -282.92877751 133.85205031 -268.625 118.25 C-267.64029184 117.16045726 -266.65593497 116.07059696 -265.671875 114.98046875 C-260.88512203 109.70309628 -256.13713238 104.54992378 -250.66015625 99.97265625 C-248.200065 97.89031413 -245.85997212 95.69508324 -243.5 93.5 C-237.14558779 87.72088437 -230.47891494 82.42292732 -223.625 77.25 C-222.95082031 76.74065918 -222.27664063 76.23131836 -221.58203125 75.70654297 C-170.9141371 37.69391535 -111.56273355 12.81668176 -49 3.4375 C-48.29792419 3.33172638 -47.59584839 3.22595276 -46.87249756 3.11697388 C-31.28866957 0.80402501 -15.74323795 0.01284434 0 0 Z " fill="#FEF9F3" transform="translate(1626.625,79.75)"/>
<path d="M0 0 C981.42 0 1962.84 0 2974 0 C2974 23.43 2974 46.86 2974 71 C1992.58 71 1011.16 71 0 71 C0 47.57 0 24.14 0 0 Z " fill="#FEF8F3" transform="translate(98,798)"/>
<path d="M0 0 C153.12 0 306.24 0 464 0 C464 43.89 464 87.78 464 133 C412.52 133 361.04 133 308 133 C308 306.91 308 480.82 308 660 C258.17 660 208.34 660 157 660 C157 486.09 157 312.18 157 133 C105.19 133 53.38 133 0 133 C0 89.11 0 45.22 0 0 Z " fill="#FEF9F3" transform="translate(2677,92)"/>
<path d="M0 0 C49.83 0 99.66 0 151 0 C151 173.91 151 347.82 151 527 C225.58 527 300.16 527 377 527 C377 570.89 377 614.78 377 660 C252.59 660 128.18 660 0 660 C0 442.2 0 224.4 0 0 Z " fill="#FEF9F3" transform="translate(2343,92)"/>
</svg>
